<?xml version="1.0" standalone="no"?>
<!DOCTYPE svg PUBLIC "-//W3C//DTD SVG 20010904//EN"
 "http://www.w3.org/TR/2001/REC-SVG-20010904/DTD/svg10.dtd">
<svg version="1.0" xmlns="http://www.w3.org/2000/svg"
 width="96.000000pt" height="96.000000pt" viewBox="0 0 96.000000 96.000000"
 preserveAspectRatio="xMidYMid meet">
<metadata>
Created for Embrava Pty Ltd.
</metadata>
<g transform="translate(0.000000,96.000000) scale(0.100000,-0.100000)"
fill="#000000" stroke="none">
<path d="M157 812 l-27 -28 0 -303 0 -302 25 -24 24 -25 301 0 301 0 24 25 25
24 0 302 0 303 -27 28 -27 28 -296 0 -296 0 -27 -28z m506 -156 c60 -25 72
-49 72 -140 l0 -81 -197 -3 c-116 -1 -198 -6 -198 -12 0 -17 41 -31 111 -37
l69 -6 0 -45 0 -45 -88 5 c-101 6 -163 31 -187 78 -20 39 -21 190 0 229 8 16
34 38 57 50 38 18 60 21 186 21 98 0 153 -4 175 -14z"/>
<path d="M342 568 c-7 -7 -12 -20 -12 -30 0 -17 12 -18 155 -18 143 0 155 1
155 18 0 37 -20 42 -155 42 -89 0 -135 -4 -143 -12z"/>
</g>
</svg>
